<svg xmlns="http://www.w3.org/2000/svg" width="50" height="30" viewBox="0 0 50 30"><defs><style>.cls-1{fill:url(#linear-gradient)}.cls-2{fill:#fff}.cls-3{opacity:.2}.cls-3,.cls-4,.cls-5,.cls-6{fill:url(#linear-gradient-2)}.cls-4{opacity:.3}.cls-5{opacity:.4}.cls-7{fill:#f4f4f4}</style><linearGradient id="linear-gradient" x1=".5" y1="1.142" x2=".5" y2="-.105" gradientUnits="objectBoundingBox"><stop offset="0" stop-color="#f9a606"/><stop offset="1" stop-color="#fbcc5f"/></linearGradient><linearGradient id="linear-gradient-2" x1=".854" y1=".156" x2=".204" y2=".913" gradientUnits="objectBoundingBox"><stop offset="0" stop-color="#b6509e"/><stop offset="1" stop-color="#2ebac6"/></linearGradient></defs><g id="Group_19007" data-name="Group 19007" transform="translate(-10483 6053)"><g id="Badge_Dai" transform="translate(10503 -6053)"><circle id="Ellipse_1272" data-name="Ellipse 1272" class="cls-1" cx="15" cy="15" r="15"/><path id="Path_7539" data-name="Path 7539" class="cls-2" d="M163.07 163.385h-1.78a7.2 7.2 0 0 0-7.09-4.585h-5.715v4.585H146.5v1.645h1.985v1.725H146.5v1.645h1.985v4.53h5.715a7.221 7.221 0 0 0 7.055-4.53h1.815v-1.645h-1.415a7.461 7.461 0 0 0 .055-.89v-.04c0-.27-.015-.535-.04-.795h1.4v-1.645zm-12.985-3.12h4.115a5.611 5.611 0 0 1 5.32 3.115h-9.435zm4.115 11.185h-4.115v-3.05h9.425a5.617 5.617 0 0 1-5.31 3.05zm5.855-5.55a5.915 5.915 0 0 1-.06.85h-9.91v-1.725H160a6.505 6.505 0 0 1 .055.835z" transform="translate(-139.175 -150.86)"/></g><g id="Group_19005" data-name="Group 19005" transform="translate(292 -144)"><g id="Group_15751" data-name="Group 15751" transform="translate(10191 -5909)"><circle id="Ellipse_1251" data-name="Ellipse 1251" class="cls-3" cx="15" cy="15" r="15"/><circle id="Ellipse_1252" data-name="Ellipse 1252" class="cls-4" cx="13.487" cy="13.487" r="13.487" transform="translate(1.513 1.513)"/><circle id="Ellipse_1253" data-name="Ellipse 1253" class="cls-5" cx="12.227" cy="12.227" r="12.227" transform="translate(2.773 2.773)"/><ellipse id="Ellipse_1254" data-name="Ellipse 1254" class="cls-6" cx="10.717" cy="10.674" rx="10.717" ry="10.674" transform="translate(4.311 4.311)"/></g><g id="Group_18999" data-name="Group 18999" transform="translate(10199.25 -5903)"><path id="Path_7440" data-name="Path 7440" class="cls-2" d="M75.119 7.163h-5.695L71.192.457a.362.362 0 0 0-.625-.327l-8.838 10.34a.362.362 0 0 0 .275.6H67.7l-1.768 6.707a.362.362 0 0 0 .625.327L75.394 7.76a.362.362 0 0 0-.275-.597z" transform="translate(-61.642 -.001)"/><path id="Path_7441" data-name="Path 7441" class="cls-7" d="M251.392 7.162h-.7a.367.367 0 0 1-.355-.46l1.529-5.791.669-.782a.362.362 0 0 1 .625.328z" transform="translate(-243.609)"/><path id="Path_7442" data-name="Path 7442" class="cls-7" d="M191.21 201.782l-8.838 10.34a.362.362 0 0 1-.625-.328l.12-.455 8.17-9.558a.362.362 0 0 0-.275-.6h1.174a.362.362 0 0 1 .274.601z" transform="translate(-177.458 -194.022)"/></g></g></g></svg>