<svg xmlns="http://www.w3.org/2000/svg" width="40.649" height="30" viewBox="0 0 40.649 30">
  <defs>
    <style>
      .cls-1 {
        fill: #66c8b6;
      }

      .cls-2 {
        fill: #3b3735;
      }

      .cls-3 {
        fill: #1f1d19;
      }

      .cls-4 {
        fill: #959190;
      }

      .cls-5 {
        fill: #403c3a;
      }
    </style>
  </defs>
  <g id="Group_19002" data-name="Group 19002" transform="translate(-10323.266 6146)">
    <g id="Page-1" transform="translate(10336.83 -6146)">
      <g id="_003---Safe" data-name="003---Safe" transform="translate(0.17)">
        <path id="Shape" class="cls-1" d="M2.168,26.95V28a2,2,0,0,0,2,2H9.085a2,2,0,0,0,2-2V27h5v1a2,2,0,0,0,2,2H23a2,2,0,0,0,2-2V26.958A2.5,2.5,0,0,0,27.085,24.5V2.5a2.5,2.5,0,0,0-2.5-2.5H2.67A2.5,2.5,0,0,0,.17,2.5v2a.5.5,0,0,0,1,0v-2A1.5,1.5,0,0,1,2.67,1H24.585a1.5,1.5,0,0,1,1.5,1.5v22a1.5,1.5,0,0,1-1.5,1.5H2.67a1.5,1.5,0,0,1-1.5-1.5V7a.5.5,0,1,0-1,0V24.5a2.5,2.5,0,0,0,2,2.45ZM24,27v1a1,1,0,0,1-1,1H18.085a1,1,0,0,1-1-1V27ZM10.085,27v1a1,1,0,0,1-1,1H4.168a1,1,0,0,1-1-1V27Z" transform="translate(-0.17)"/>
        <path id="Shape-2" data-name="Shape" class="cls-1" d="M7.5,20.5A.5.5,0,0,0,7,21v4.5A1.5,1.5,0,0,0,8.5,27h17A1.5,1.5,0,0,0,27,25.5V25a1.5,1.5,0,0,0,1.5-1.5v-3A1.5,1.5,0,0,0,27,19V15a1.5,1.5,0,0,0,1.5-1.5v-3A1.5,1.5,0,0,0,27,9V8.5A1.5,1.5,0,0,0,25.5,7H8.5A1.5,1.5,0,0,0,7,8.5v10a.5.5,0,0,0,1,0V8.5A.5.5,0,0,1,8.5,8h17a.5.5,0,0,1,.5.5V9a1.5,1.5,0,0,0-1.5,1.5v3A1.5,1.5,0,0,0,26,15v4a1.5,1.5,0,0,0-1.5,1.5v3A1.5,1.5,0,0,0,26,25v.5a.5.5,0,0,1-.5.5H8.5a.5.5,0,0,1-.5-.5V21A.5.5,0,0,0,7.5,20.5Zm18-7v-3A.5.5,0,0,1,26,10h1a.5.5,0,0,1,.5.5v3a.5.5,0,0,1-.5.5H26A.5.5,0,0,1,25.5,13.5Zm0,10v-3A.5.5,0,0,1,26,20h1a.5.5,0,0,1,.5.5v3a.5.5,0,0,1-.5.5H26A.5.5,0,0,1,25.5,23.5Z" transform="translate(-3.585 -3.5)"/>
        <path id="Shape-3" data-name="Shape" class="cls-1" d="M15.454,23.3a6,6,0,1,0,0-4.592A6,6,0,0,0,15.454,23.3Zm3.177-6.7.182.439a.5.5,0,1,0,.924-.383l-.182-.439a4.955,4.955,0,0,1,2.884,0l-.182.439a.5.5,0,1,0,.924.383l.182-.44a4.956,4.956,0,0,1,2.039,2.04l-.439.182a.5.5,0,1,0,.383.924l.439-.181a4.955,4.955,0,0,1,0,2.884l-.439-.181a.5.5,0,1,0-.383.924l.44.182a4.956,4.956,0,0,1-2.04,2.039l-.182-.439a.5.5,0,1,0-.924.383l.181.439a4.954,4.954,0,0,1-2.884,0l.181-.439a.5.5,0,1,0-.924-.383l-.182.44a4.957,4.957,0,0,1-2.039-2.04l.439-.182a.5.5,0,1,0-.383-.924l-.439.181a4.955,4.955,0,0,1,0-2.884l.439.181a.5.5,0,1,0,.383-.924l-.44-.182a4.957,4.957,0,0,1,2.04-2.04Z" transform="translate(-7.582 -7.499)"/>
        <path id="Shape-4" data-name="Shape" class="cls-1" d="M24,27a3,3,0,1,0-2.776-1.85A3,3,0,0,0,24,27Zm-.77-4.85a2,2,0,1,1-1.087,1.082A2,2,0,0,1,23.234,22.15Z" transform="translate(-10.584 -10.5)"/>
        <path id="Shape-5" data-name="Shape" class="cls-1" d="M14,11H11.5a.5.5,0,0,0-.5.5V14a.5.5,0,0,0,1,0V12h2a.5.5,0,0,0,0-1Z" transform="translate(-5.585 -5.5)"/>
      </g>
    </g>
    <g id="ETH" transform="translate(18952.281 4284.992)">
      <path id="Path_2995" data-name="Path 2995" class="cls-2" d="M155.4,41.8v7.417L164.567,36.3Z" transform="translate(-8774.416 -10450.209)"/>
      <path id="Path_2996" data-name="Path 2996" class="cls-2" d="M164.234,30.467,155.4,15.8V26.467Z" transform="translate(-8774.416 -10446.792)"/>
      <path id="Path_2997" data-name="Path 2997" class="cls-3" d="M155.4,29.6v9.083l8.75-5.083Z" transform="translate(-8774.416 -10449.095)"/>
      <path id="Path_2998" data-name="Path 2998" class="cls-4" d="M143.8,30.467,152.633,15.8V26.467Z" transform="translate(-8772.482 -10446.792)"/>
      <path id="Path_2999" data-name="Path 2999" class="cls-5" d="M152.65,29.6v9.083L143.9,33.6Z" transform="translate(-8772.499 -10449.095)"/>
      <path id="Path_3000" data-name="Path 3000" class="cls-4" d="M152.567,41.8v7.417L143.4,36.3Z" transform="translate(-8772.415 -10450.209)"/>
    </g>
  </g>
</svg>
