<svg xmlns="http://www.w3.org/2000/svg" width="73.047" height="30" viewBox="0 0 73.047 30">
  <defs>
    <style>
      .cls-1 {
        opacity: 0.1;
      }

      .cls-2 {
        fill: #662d91;
      }

      .cls-3 {
        fill: #9e1f63;
      }

      .cls-4 {
        fill: #ff5000;
      }

      .cls-5 {
        fill: #fff;
        stroke: #ff5000;
        stroke-miterlimit: 10;
        stroke-width: 2px;
      }

      .cls-6 {
        fill: #3b3735;
      }

      .cls-7 {
        fill: #1f1d19;
      }

      .cls-8 {
        fill: #959190;
      }

      .cls-9 {
        fill: #403c3a;
      }

      .cls-10 {
        opacity: 0.4;
      }
    </style>
  </defs>
  <g id="Group_19011" data-name="Group 19011" transform="translate(-10499.579 6143)">
    <g id="Group_19010" data-name="Group 19010" class="cls-1" transform="translate(10442.655 -6216.115)">
      <g id="BAT" transform="translate(75.066 73.115)">
        <path id="Path_7575" data-name="Path 7575" class="cls-2" d="M34.9,1156.725l-17.368-9.945L0,1156.766Z" transform="translate(0 -1126.766)"/>
        <path id="Path_7576" data-name="Path 7576" class="cls-3" d="M1004.8,0l-.006,20.014,17.368,9.945Z" transform="translate(-987.254)"/>
        <path id="Path_7577" data-name="Path 7577" class="cls-4" d="M0,30l17.536-9.986L17.541,0Z"/>
        <path id="Path_7578" data-name="Path 7578" class="cls-5" d="M599.07,695.67l-7.17,11.976h14.372Z" transform="translate(-581.57 -683.529)"/>
      </g>
    </g>
    <g id="ETH" class="cls-1" transform="translate(19148.594 4287.992)">
      <path id="Path_2995" data-name="Path 2995" class="cls-6" d="M155.4,41.8v7.417L164.567,36.3Z" transform="translate(-8774.415 -10450.209)"/>
      <path id="Path_2996" data-name="Path 2996" class="cls-6" d="M164.234,30.467,155.4,15.8V26.467Z" transform="translate(-8774.415 -10446.792)"/>
      <path id="Path_2997" data-name="Path 2997" class="cls-7" d="M155.4,29.6v9.083l8.75-5.083Z" transform="translate(-8774.415 -10449.095)"/>
      <path id="Path_2998" data-name="Path 2998" class="cls-8" d="M143.8,30.467,152.633,15.8V26.467Z" transform="translate(-8772.481 -10446.792)"/>
      <path id="Path_2999" data-name="Path 2999" class="cls-9" d="M152.65,29.6v9.083L143.9,33.6Z" transform="translate(-8772.499 -10449.095)"/>
      <path id="Path_3000" data-name="Path 3000" class="cls-8" d="M152.567,41.8v7.417L143.4,36.3Z" transform="translate(-8772.415 -10450.209)"/>
    </g>
    <g id="Group_19009" data-name="Group 19009" class="cls-10" transform="translate(10452.655 -6216.115)">
      <g id="BAT-2" data-name="BAT" transform="translate(75.066 73.115)">
        <path id="Path_7575-2" data-name="Path 7575" class="cls-2" d="M34.9,1156.725l-17.368-9.945L0,1156.766Z" transform="translate(0 -1126.766)"/>
        <path id="Path_7576-2" data-name="Path 7576" class="cls-3" d="M1004.8,0l-.006,20.014,17.368,9.945Z" transform="translate(-987.254)"/>
        <path id="Path_7577-2" data-name="Path 7577" class="cls-4" d="M0,30l17.536-9.986L17.541,0Z"/>
        <path id="Path_7578-2" data-name="Path 7578" class="cls-5" d="M599.07,695.67l-7.17,11.976h14.372Z" transform="translate(-581.57 -683.529)"/>
      </g>
    </g>
    <g id="ETH-2" data-name="ETH" class="cls-10" transform="translate(19138.594 4287.992)">
      <path id="Path_2995-2" data-name="Path 2995" class="cls-6" d="M155.4,41.8v7.417L164.567,36.3Z" transform="translate(-8774.415 -10450.209)"/>
      <path id="Path_2996-2" data-name="Path 2996" class="cls-6" d="M164.234,30.467,155.4,15.8V26.467Z" transform="translate(-8774.415 -10446.792)"/>
      <path id="Path_2997-2" data-name="Path 2997" class="cls-7" d="M155.4,29.6v9.083l8.75-5.083Z" transform="translate(-8774.415 -10449.095)"/>
      <path id="Path_2998-2" data-name="Path 2998" class="cls-8" d="M143.8,30.467,152.633,15.8V26.467Z" transform="translate(-8772.481 -10446.792)"/>
      <path id="Path_2999-2" data-name="Path 2999" class="cls-9" d="M152.65,29.6v9.083L143.9,33.6Z" transform="translate(-8772.499 -10449.095)"/>
      <path id="Path_3000-2" data-name="Path 3000" class="cls-8" d="M152.567,41.8v7.417L143.4,36.3Z" transform="translate(-8772.415 -10450.209)"/>
    </g>
    <g id="ETH-3" data-name="ETH" transform="translate(19128.594 4287.992)">
      <path id="Path_2995-3" data-name="Path 2995" class="cls-6" d="M155.4,41.8v7.417L164.567,36.3Z" transform="translate(-8774.415 -10450.209)"/>
      <path id="Path_2996-3" data-name="Path 2996" class="cls-6" d="M164.234,30.467,155.4,15.8V26.467Z" transform="translate(-8774.415 -10446.792)"/>
      <path id="Path_2997-3" data-name="Path 2997" class="cls-7" d="M155.4,29.6v9.083l8.75-5.083Z" transform="translate(-8774.415 -10449.095)"/>
      <path id="Path_2998-3" data-name="Path 2998" class="cls-8" d="M143.8,30.467,152.633,15.8V26.467Z" transform="translate(-8772.481 -10446.792)"/>
      <path id="Path_2999-3" data-name="Path 2999" class="cls-9" d="M152.65,29.6v9.083L143.9,33.6Z" transform="translate(-8772.499 -10449.095)"/>
      <path id="Path_3000-3" data-name="Path 3000" class="cls-8" d="M152.567,41.8v7.417L143.4,36.3Z" transform="translate(-8772.415 -10450.209)"/>
    </g>
    <g id="Group_17780" data-name="Group 17780" transform="translate(10462.655 -6216.115)">
      <g id="BAT-3" data-name="BAT" transform="translate(75.066 73.115)">
        <path id="Path_7575-3" data-name="Path 7575" class="cls-2" d="M34.9,1156.725l-17.368-9.945L0,1156.766Z" transform="translate(0 -1126.766)"/>
        <path id="Path_7576-3" data-name="Path 7576" class="cls-3" d="M1004.8,0l-.006,20.014,17.368,9.945Z" transform="translate(-987.254)"/>
        <path id="Path_7577-3" data-name="Path 7577" class="cls-4" d="M0,30l17.536-9.986L17.541,0Z"/>
        <path id="Path_7578-3" data-name="Path 7578" class="cls-5" d="M599.07,695.67l-7.17,11.976h14.372Z" transform="translate(-581.57 -683.529)"/>
      </g>
    </g>
  </g>
</svg>
